<svg xmlns="http://www.w3.org/2000/svg" width="69.32" height="69.999" viewBox="0 0 69.32 69.999"><defs><style>.a{fill:#a3a0fb;}</style></defs><g transform="translate(0.001 -0.002)"><path class="a" d="M199.563,196.973a5.93,5.93,0,0,0-8.807-7.917l-1.982,1.982a1.868,1.868,0,0,1-2.641-2.641l3.353-3.353a2.031,2.031,0,0,0-2.872-2.872l-.926.926-.884-.884a2.031,2.031,0,0,0-2.873,2.873l.908.907a5.93,5.93,0,0,0,8.807,7.917l1.982-1.982a1.868,1.868,0,0,1,2.641,2.641l-3.889,3.889a2.031,2.031,0,1,0,2.872,2.872l1.462-1.462.884.883a2.031,2.031,0,1,0,2.873-2.872Zm0,0" transform="translate(-156.546 -156.75)"/><path class="a" d="M339.472,83.143a6.093,6.093,0,1,0,8.617,0,6.053,6.053,0,0,0-8.617,0Zm5.745,5.745a2.031,2.031,0,1,1,0-2.873A2.034,2.034,0,0,1,345.217,88.888Zm0,0" transform="translate(-291.521 -70.236)"/><path class="a" d="M68.483,2.815A2.031,2.031,0,0,0,66.515.846L38.825,0a2.032,2.032,0,0,0-1.5.6L3.141,35.134a10.945,10.945,0,0,0,0,15.349L19.3,66.811a10.71,10.71,0,0,0,15.25,0L68.731,32.28a2.028,2.028,0,0,0,.586-1.489ZM31.666,63.953a6.648,6.648,0,0,1-9.477,0L6.028,47.625a6.869,6.869,0,0,1,0-9.633L39.584,4.09l24.9.758.752,25.194Zm0,0" transform="translate(0 0)"/></g></svg>