<svg xmlns="http://www.w3.org/2000/svg" width="41.869" height="54.696" viewBox="0 0 41.869 54.696"><defs><style>.a{fill:#43425d;}</style></defs><g transform="translate(-60.036)"><path class="a" d="M123.655,435.515h-2.92a1.068,1.068,0,0,1,0-2.137h2.92a1.068,1.068,0,0,1,0,2.137Z" transform="translate(-53.261 -387.081)"/><path class="a" d="M198.765,435.515h-2.92a1.068,1.068,0,0,1,0-2.137h2.92a1.068,1.068,0,1,1,0,2.137Z" transform="translate(-120.347 -387.081)"/><path class="a" d="M273.877,435.515h-2.92a1.068,1.068,0,0,1,0-2.137h2.92a1.068,1.068,0,0,1,0,2.137Z" transform="translate(-187.435 -387.081)"/><path class="a" d="M348.988,435.515h-2.92a1.068,1.068,0,0,1,0-2.137h2.92a1.068,1.068,0,0,1,0,2.137Z" transform="translate(-254.522 -387.081)"/><path class="a" d="M246.894,494.164a1.068,1.068,0,1,1,1.047-.86A1.079,1.079,0,0,1,246.894,494.164Z" transform="translate(-165.943 -439.467)"/><path class="a" d="M100.837,389.418H85.8a1.068,1.068,0,1,1,0-2.137H99.769V376.893h-37.6v10.388H76.141a1.068,1.068,0,1,1,0,2.137H61.1a1.068,1.068,0,0,1-1.068-1.068V375.824a1.068,1.068,0,0,1,1.068-1.068h39.733a1.068,1.068,0,0,1,1.068,1.068v12.525A1.068,1.068,0,0,1,100.837,389.418Z" transform="translate(0 -334.721)"/><path class="a" d="M138.705,18.527a10.324,10.324,0,1,0-12.524,0,9.064,9.064,0,0,0-8.516,9.037v6.365A1.068,1.068,0,0,0,118.733,35h27.42a1.068,1.068,0,0,0,1.068-1.068V27.564A9.064,9.064,0,0,0,138.705,18.527Zm-14.449-8.2a8.187,8.187,0,1,1,8.187,8.187,8.2,8.2,0,0,1-8.187-8.187Zm20.829,22.537H119.8v-5.3a6.924,6.924,0,0,1,6.916-6.916h11.451a6.924,6.924,0,0,1,6.916,6.916v5.3Z" transform="translate(-51.473)"/></g></svg>